<svg width="91" height="69" viewBox="0 0 91 69" fill="none" xmlns="http://www.w3.org/2000/svg">
<path opacity="0.34" d="M87.5158 68.5837H3.48425C1.56 68.5837 0 67.0237 0 65.0995C0 63.1752 1.56 61.6152 3.48425 61.6152H87.5158C89.44 61.6152 91 63.1752 91 65.0995C91 67.0239 89.44 68.5837 87.5158 68.5837Z" fill="#353535"/>
<path d="M22.2217 39.7851V3.19538C22.2217 1.98298 23.2047 1 24.4171 1H64.6657C65.8781 1 66.8611 1.98298 66.8611 3.19538V39.7851C66.8611 40.9975 65.8781 41.9804 64.6657 41.9804H24.4171C23.2047 41.9804 22.2217 40.9975 22.2217 39.7851Z" fill="#FF85A5"/>
<path d="M23.6846 38.0776V3.6833C23.6846 3.44069 23.7809 3.20802 23.9525 3.03647C24.124 2.86493 24.3567 2.76855 24.5993 2.76855H64.4821C64.7247 2.76855 64.9573 2.86493 65.1289 3.03647C65.3004 3.20802 65.3968 3.44069 65.3968 3.6833V38.0776C65.3968 38.1977 65.3731 38.3167 65.3272 38.4277C65.2812 38.5386 65.2138 38.6395 65.1289 38.7244C65.0439 38.8094 64.9431 38.8767 64.8321 38.9227C64.7211 38.9687 64.6022 38.9923 64.4821 38.9923H24.5993C24.3567 38.9923 24.124 38.896 23.9525 38.7244C23.7809 38.5529 23.6846 38.3202 23.6846 38.0776Z" fill="#FFE7ED"/>
<path d="M22.2217 39.7851V3.19538C22.2217 1.98298 23.2047 1 24.4171 1H64.6657C65.8781 1 66.8611 1.98298 66.8611 3.19538V39.7851C66.8611 40.9975 65.8781 41.9804 64.6657 41.9804H24.4171C23.2047 41.9804 22.2217 40.9975 22.2217 39.7851Z" stroke="#231F20" stroke-width="1.09769" stroke-miterlimit="10" stroke-linecap="round" stroke-linejoin="round"/>
<path d="M25.5146 32.9674V6.25696C25.5146 5.91731 25.6496 5.59157 25.8897 5.35141C26.1299 5.11124 26.4556 4.97632 26.7953 4.97632H62.2873C62.6269 4.97632 62.9527 5.11124 63.1928 5.35141C63.433 5.59157 63.5679 5.91731 63.5679 6.25696V32.9674C63.5679 33.3071 63.433 33.6328 63.1928 33.873C62.9527 34.1131 62.6269 34.2481 62.2873 34.2481H26.7953C26.4556 34.2481 26.1299 34.1131 25.8897 33.873C25.6496 33.6328 25.5146 33.3071 25.5146 32.9674Z" fill="#FF85A5"/>
<path d="M30.8198 32.51C28.651 32.51 26.8864 30.7454 26.8864 28.5766V10.6477C26.8864 8.47884 28.651 6.71428 30.8198 6.71428H58.262C60.4309 6.71428 62.1954 8.47884 62.1954 10.6477V28.5766C62.1954 30.7454 60.4309 32.51 58.262 32.51H30.8198Z" fill="#3A3842" stroke="#231F20" stroke-width="0.182948"/>
<path d="M58.9935 45.2735H30.0876C29.6994 45.2735 29.3272 45.1193 29.0527 44.8449C28.7782 44.5704 28.624 44.1981 28.624 43.81V41.9805H60.4571V43.81C60.4571 44.1981 60.3029 44.5704 60.0284 44.8449C59.7539 45.1193 59.3816 45.2735 58.9935 45.2735Z" fill="#FF85A5"/>
<path d="M28.624 41.9805H60.4571V43.627H28.624V41.9805Z" fill="#DBA1A9"/>
<path d="M58.9935 45.2735H30.0876C29.6994 45.2735 29.3272 45.1193 29.0527 44.8449C28.7782 44.5704 28.624 44.1981 28.624 43.81V41.9805H60.457V43.81C60.457 44.1981 60.3029 44.5704 60.0284 44.8449C59.7539 45.1193 59.3816 45.2735 58.9935 45.2735Z" stroke="#231F20" stroke-miterlimit="10" stroke-linecap="round" stroke-linejoin="round"/>
<path d="M76.0082 62.8365H13.0739C12.6858 62.8365 12.3135 62.6823 12.039 62.4078C11.7645 62.1333 11.6104 61.7611 11.6104 61.3729V46.737C11.6104 46.3489 11.7645 45.9766 12.039 45.7021C12.3135 45.4276 12.6858 45.2734 13.0739 45.2734H76.0082C76.3964 45.2734 76.7686 45.4276 77.0431 45.7021C77.3176 45.9766 77.4718 46.3489 77.4718 46.737V61.3729C77.4718 61.7611 77.3176 62.1333 77.0431 62.4078C76.7686 62.6823 76.3964 62.8365 76.0082 62.8365Z" fill="#FF85A5"/>
<path d="M76.0082 62.8365H13.0739C12.6858 62.8365 12.3135 62.6823 12.039 62.4078C11.7645 62.1333 11.6104 61.7611 11.6104 61.3729V46.737C11.6104 46.3489 11.7645 45.9766 12.039 45.7021C12.3135 45.4276 12.6858 45.2734 13.0739 45.2734H76.0082C76.3964 45.2734 76.7686 45.4276 77.0431 45.7021C77.3176 45.9766 77.4718 46.3489 77.4718 46.737V61.3729C77.4718 61.7611 77.3176 62.1333 77.0431 62.4078C76.7686 62.6823 76.3964 62.8365 76.0082 62.8365Z" stroke="#231F20" stroke-miterlimit="10" stroke-linecap="round" stroke-linejoin="round"/>
<path d="M13.8906 59.9093V48.2006C13.8906 47.8125 14.0448 47.4402 14.3193 47.1657C14.5938 46.8913 14.966 46.7371 15.3542 46.7371H73.727C74.1152 46.7371 74.4875 46.8913 74.7619 47.1657C75.0364 47.4402 75.1906 47.8125 75.1906 48.2006V59.9093C75.1906 60.2975 75.0364 60.6698 74.7619 60.9442C74.4875 61.2187 74.1152 61.3729 73.727 61.3729H15.3542C14.966 61.3729 14.5938 61.2187 14.3193 60.9442C14.0448 60.6698 13.8906 60.2975 13.8906 59.9093Z" fill="#FFE7ED"/>
<path d="M57.3848 37.9251C58.1426 37.9251 58.7569 37.3108 58.7569 36.553C58.7569 35.7952 58.1426 35.1809 57.3848 35.1809C56.627 35.1809 56.0127 35.7952 56.0127 36.553C56.0127 37.3108 56.627 37.9251 57.3848 37.9251Z" fill="#CAB5EA"/>
<path d="M58.4822 36.5529C58.4822 37.1592 57.9907 37.6506 57.3845 37.6506C56.7782 37.6506 56.2868 37.1592 56.2868 36.5529C56.2868 35.9467 56.7782 35.4552 57.3845 35.4552C57.9907 35.4552 58.4822 35.9467 58.4822 36.5529Z" fill="#3A3842" stroke="#231F20" stroke-width="0.182948"/>
<path d="M57.3847 37.5743C57.9488 37.5743 58.4061 37.117 58.4061 36.5529C58.4061 35.9888 57.9488 35.5315 57.3847 35.5315C56.8206 35.5315 56.3633 35.9888 56.3633 36.5529C56.3633 37.117 56.8206 37.5743 57.3847 37.5743Z" fill="#33313A"/>
<path d="M33.6466 55.0615V60.0926M31.8171 55.0615V60.0926M29.9876 55.0615V60.0926M28.1582 55.0615V60.0926M26.3287 55.0615V60.0926M24.4992 55.0615V60.0926M22.6697 55.0615V60.0926M20.8402 55.0615V60.0926M19.0107 55.0615V60.0926" stroke="#FF85A5" stroke-width="1.09769" stroke-miterlimit="10" stroke-linecap="round" stroke-linejoin="round"/>
<path d="M33.8058 55.0615V60.0926M31.9763 55.0615V60.0926M30.1468 55.0615V60.0926M28.3173 55.0615V60.0926M26.4879 55.0615V60.0926M24.6584 55.0615V60.0926M22.8289 55.0615V60.0926M20.9994 55.0615V60.0926M19.1699 55.0615V60.0926" stroke="#231F20" stroke-width="0.731794" stroke-miterlimit="10" stroke-linecap="round" stroke-linejoin="round"/>
<path d="M18.2041 49.001H19.4438V50.2406H18.2041V49.001Z" fill="#F26640"/>
<path d="M19.7109 49.001H20.9506V50.2406H19.7109V49.001Z" fill="#5EB755"/>
<path d="M18.2041 50.4597H19.4438V51.6994H18.2041V50.4597Z" fill="#6A82EA"/>
<path d="M19.7109 50.4597H20.9506V51.6994H19.7109V50.4597Z" fill="#EFAD43"/>
<path d="M37.2606 9.59863H47.3839M31.4062 9.59863H34.3334" stroke="white" stroke-width="1.46359" stroke-miterlimit="10" stroke-linecap="round" stroke-linejoin="round"/>
<path d="M58.262 6.6228H56.872C56.0158 18.3163 46.2583 27.5375 34.3461 27.5375H26.7949V28.5766C26.7949 30.796 28.6004 32.6015 30.8198 32.6015H58.262C60.4814 32.6015 62.2869 30.796 62.2869 28.5766V10.6477C62.2869 8.42832 60.4814 6.6228 58.262 6.6228Z" fill="#33313A"/>
<path opacity="0.34" d="M21.6393 49.7038H25.9995V50.1787H21.6393V49.7038ZM21.6393 50.8375H23.7281V50.9963H21.6393V50.8375Z" fill="#3A3842" stroke="#231F20" stroke-width="0.182948"/>
<path d="M26.4737 60.2141H45.5003V62.4095H26.4737V60.2141ZM15.1602 60.2141H18.8191V62.4095H15.1602V60.2141ZM20.8169 60.2141H24.4759V62.4095H20.8169V60.2141ZM47.4981 60.2141H51.1571V62.4095H47.4981V60.2141ZM53.1549 60.2141H56.8139V62.4095H53.1549V60.2141ZM58.8117 60.2141H62.4706V62.4095H58.8117V60.2141Z" fill="#FFB6C9"/>
<path d="M26.4737 60.2141H45.5003V62.4095H26.4737V60.2141ZM15.1602 60.2141H18.8191V62.4095H15.1602V60.2141ZM20.8169 60.2141H24.4759V62.4095H20.8169V60.2141ZM47.4981 60.2141H51.1571V62.4095H47.4981V60.2141ZM53.1549 60.2141H56.8139V62.4095H53.1549V60.2141ZM58.8117 60.2141H62.4706V62.4095H58.8117V60.2141Z" stroke="#231F20" stroke-width="1.09769" stroke-miterlimit="10" stroke-linecap="round" stroke-linejoin="round"/>
<path d="M65.946 65.7025H11.7933C11.5992 65.7025 11.4131 65.6254 11.2759 65.4882C11.1386 65.3509 11.0615 65.1648 11.0615 64.9707V63.1412C11.0615 62.9471 11.1386 62.761 11.2759 62.6238C11.4131 62.4865 11.5992 62.4094 11.7933 62.4094H65.946C66.1401 62.4094 66.3263 62.4865 66.4635 62.6238C66.6007 62.761 66.6778 62.9471 66.6778 63.1412V64.9707C66.6778 65.1648 66.6007 65.3509 66.4635 65.4882C66.3263 65.6254 66.1401 65.7025 65.946 65.7025Z" fill="#FFCEDB"/>
<path d="M65.946 65.7025H11.7933C11.5992 65.7025 11.4131 65.6254 11.2759 65.4882C11.1386 65.3509 11.0615 65.1648 11.0615 64.9707V63.1412C11.0615 62.9471 11.1386 62.761 11.2759 62.6238C11.4131 62.4865 11.5992 62.4094 11.7933 62.4094H65.946C66.1401 62.4094 66.3263 62.4865 66.4635 62.6238C66.6007 62.761 66.6778 62.9471 66.6778 63.1412V64.9707C66.6778 65.1648 66.6007 65.3509 66.4635 65.4882C66.3263 65.6254 66.1401 65.7025 65.946 65.7025Z" stroke="#231F20" stroke-miterlimit="10" stroke-linecap="round" stroke-linejoin="round"/>
<path d="M77.7159 65.7025H70.8857V64.8183C70.8857 63.4879 71.9642 62.4094 73.2946 62.4094H75.3071C76.6375 62.4094 77.7159 63.4879 77.7159 64.8183V65.7025Z" fill="#FFCEDB"/>
<path d="M77.7159 65.7025H70.8857V64.8183C70.8857 63.4879 71.9642 62.4094 73.2946 62.4094H75.3071C76.6375 62.4094 77.7159 63.4879 77.7159 64.8183V65.7025Z" stroke="#231F20" stroke-width="1.09769" stroke-miterlimit="10" stroke-linecap="round" stroke-linejoin="round"/>
<path d="M70.6364 52.7223H53.9358C53.7985 52.7223 53.6875 52.6111 53.6875 52.4741V51.0017C53.6875 50.8645 53.7987 50.7534 53.9358 50.7534H70.6364C70.7736 50.7534 70.8846 50.8646 70.8846 51.0017V52.4741C70.8846 52.6113 70.7736 52.7223 70.6364 52.7223Z" fill="#FF85A5"/>
<path d="M64.459 53.4606H60.1157C60.0552 53.4606 59.9972 53.4365 59.9545 53.3938C59.9117 53.351 59.8877 53.293 59.8877 53.2326V50.2429C59.8877 50.117 59.9898 50.0149 60.1157 50.0149H64.459C64.5849 50.0149 64.687 50.117 64.687 50.2429V53.2326C64.6869 53.293 64.6629 53.351 64.6202 53.3937C64.5774 53.4365 64.5195 53.4605 64.459 53.4606Z" fill="#FF85A5"/>
<path d="M54.5124 51.0973H70.063V52.378H54.5124V51.0973Z" fill="#3A3842" stroke="#231F20" stroke-width="0.182948"/>
<path d="M60.1833 50.5485H64.3911V52.9268H60.1833V50.5485Z" fill="#3A3842" stroke="#231F20" stroke-width="0.182948"/>
<path d="M54.7871 51.738C54.7871 51.6409 54.8257 51.5479 54.8943 51.4792C54.9629 51.4106 55.056 51.3721 55.153 51.3721H69.423C69.52 51.3721 69.6131 51.4106 69.6817 51.4792C69.7503 51.5479 69.7889 51.6409 69.7889 51.738C69.7889 51.835 69.7503 51.9281 69.6817 51.9967C69.6131 52.0653 69.52 52.1039 69.423 52.1039H55.153C55.056 52.1039 54.9629 52.0653 54.8943 51.9967C54.8257 51.9281 54.7871 51.835 54.7871 51.738Z" fill="#33313A"/>
<path d="M70.6364 57.3566H53.9358C53.7985 57.3566 53.6875 57.2453 53.6875 57.1083V55.636C53.6875 55.4987 53.7987 55.3877 53.9358 55.3877H70.6364C70.7736 55.3877 70.8846 55.4989 70.8846 55.636V57.1083C70.8846 57.2455 70.7736 57.3566 70.6364 57.3566Z" fill="#FF85A5"/>
<path d="M64.459 58.0951H60.1157C60.0552 58.0951 59.9972 58.071 59.9545 58.0283C59.9117 57.9855 59.8877 57.9276 59.8877 57.8671V54.8774C59.8877 54.7515 59.9898 54.6494 60.1157 54.6494H64.459C64.5849 54.6494 64.687 54.7515 64.687 54.8774V57.8671C64.6869 57.9276 64.6629 57.9855 64.6202 58.0282C64.5774 58.071 64.5195 58.095 64.459 58.0951Z" fill="#FF85A5"/>
<path d="M54.5124 55.7319H70.063V57.0125H54.5124V55.7319Z" fill="#3A3842" stroke="#231F20" stroke-width="0.182948"/>
<path d="M60.1833 55.183H64.3911V57.5614H60.1833V55.183Z" fill="#3A3842" stroke="#231F20" stroke-width="0.182948"/>
<path d="M54.7871 56.3725C54.7871 56.2754 54.8257 56.1824 54.8943 56.1138C54.9629 56.0451 55.056 56.0066 55.153 56.0066H69.423C69.52 56.0066 69.6131 56.0451 69.6817 56.1138C69.7503 56.1824 69.7889 56.2754 69.7889 56.3725C69.7889 56.4695 69.7503 56.5626 69.6817 56.6312C69.6131 56.6998 69.52 56.7384 69.423 56.7384H55.153C55.056 56.7384 54.9629 56.6998 54.8943 56.6312C54.8257 56.5626 54.7871 56.4695 54.7871 56.3725Z" fill="#33313A"/>
</svg>
