<svg width="48" height="48" viewBox="0 0 48 48" fill="none" xmlns="http://www.w3.org/2000/svg">
<rect width="48" height="48" rx="16" fill="#5865F2"/>
<path d="M35.0894 13.8344C33.0498 12.8985 30.8626 12.2091 28.5759 11.8142C28.5342 11.8065 28.4926 11.8256 28.4712 11.8637C28.1899 12.364 27.8783 13.0166 27.6601 13.5296C25.2005 13.1614 22.7536 13.1614 20.3444 13.5296C20.1262 13.0052 19.8033 12.364 19.5208 11.8637C19.4993 11.8269 19.4577 11.8078 19.4161 11.8142C17.1305 12.2078 14.9434 12.8973 12.9026 13.8344C12.8849 13.842 12.8698 13.8547 12.8597 13.8712C8.71119 20.069 7.57473 26.1145 8.13224 32.085C8.13476 32.1142 8.15116 32.1422 8.17386 32.1599C10.9109 34.17 13.5623 35.3903 16.1644 36.1991C16.206 36.2118 16.2501 36.1966 16.2766 36.1623C16.8922 35.3217 17.4409 34.4354 17.9113 33.5033C17.9391 33.4488 17.9126 33.384 17.8558 33.3624C16.9855 33.0323 16.1568 32.6297 15.3596 32.1726C15.2966 32.1358 15.2915 32.0456 15.3495 32.0025C15.5173 31.8768 15.6851 31.746 15.8453 31.6139C15.8743 31.5898 15.9146 31.5847 15.9487 31.5999C21.1857 33.991 26.8554 33.991 32.0306 31.5999C32.0647 31.5834 32.1051 31.5885 32.1353 31.6126C32.2955 31.7447 32.4633 31.8768 32.6323 32.0025C32.6903 32.0456 32.6865 32.1358 32.6235 32.1726C31.8263 32.6386 30.9976 33.0323 30.126 33.3611C30.0693 33.3827 30.044 33.4488 30.0718 33.5033C30.5523 34.4341 31.101 35.3204 31.7052 36.161C31.7304 36.1966 31.7758 36.2118 31.8175 36.1991C34.4322 35.3903 37.0835 34.17 39.8206 32.1599C39.8446 32.1422 39.8597 32.1155 39.8622 32.0863C40.5294 25.1837 38.7447 19.1878 35.131 13.8725C35.1221 13.8547 35.107 13.842 35.0894 13.8344Z" fill="white"/>
<path d="M15.8174 25.2244C15.8174 27.0021 17.1166 28.4496 18.6933 28.4496C20.2951 28.4496 21.5691 27.0021 21.5691 25.2244C21.5943 23.4594 20.3078 21.9991 18.6933 21.9991C17.0914 21.9991 15.8174 23.4467 15.8174 25.2244Z" fill="#5865F2"/>
<path d="M26.4505 25.2244C26.4505 27.0021 27.7496 28.4496 29.3263 28.4496C30.9408 28.4496 32.2021 27.0021 32.2021 25.2244C32.2273 23.4594 30.9408 21.9991 29.3263 21.9991C27.7244 21.9991 26.4505 23.4467 26.4505 25.2244Z" fill="#5865F2"/>
</svg>
