<svg width="73" height="69" viewBox="0 0 73 69" fill="none" xmlns="http://www.w3.org/2000/svg">
<path d="M3.85361 18.2024C7.42115 11.3324 17.6719 12.4187 24.1942 17.9634C30.2212 23.0866 29.6433 15.7299 31.1468 11.1542C32.7633 6.29609 33.9626 -1.2996 46.0123 2.76331C58.062 6.82622 55.3331 14.0048 54.3901 15.8733C51.4787 21.6787 58.1836 18.2502 65.0841 19.0367C71.563 19.7754 74.4222 29.4308 69.1513 35.9054C63.8804 42.3799 54.7552 40.9938 53.2473 40.9938C51.7395 40.9938 53.9382 44.9437 54.5509 54.1298C55.1636 63.3159 52.0828 66.9921 43.0444 64.5847C34.0061 62.1774 35.9441 57.6843 34.8925 54.3731C33.8409 51.062 29.5086 61.7342 24.2811 63.9329C18.3323 66.4141 7.29079 69.4081 6.00022 55.4942C5.36145 48.7068 8.44666 43.6836 12.8746 40.2073C16.3987 37.4523 10.7019 38.6125 5.43532 33.8761C0.168746 29.1396 -0.213645 26.0327 3.85361 18.2024Z" fill="#FF85A5" stroke="#231F20" stroke-miterlimit="10"/>
<path d="M39.2893 4.923C44.5037 3.12402 56.0189 8.24285 51.352 16.6033C46.4896 25.294 43.7694 27.219 51.3998 23.3039C59.0303 19.3887 68.6726 20.1404 67.9122 26.011C67.1517 31.8816 67.5428 39.4816 56.7707 39.2644C45.9985 39.0471 48.949 36.1053 50.7437 43.4837C52.5383 50.8621 53.4552 59.4486 48.6362 61.5561C43.8172 63.6636 38.6983 60.6522 37.1905 55.0815C35.6826 49.5107 36.8906 41.676 31.7675 52.5177C26.6443 63.3594 13.0824 64.7542 10.6838 59.6919C8.28516 54.6296 7.84193 46.947 13.9993 43.3316C20.1567 39.7163 29.8164 37.0091 16.5631 35.0494C3.30972 33.0896 1.20222 22.3913 9.03256 17.8809C16.8629 13.3704 23.9415 20.1404 26.3532 21.9568C28.7648 23.7732 31.7718 26.7758 32.6757 17.7375C33.5795 8.69912 36.4257 5.90505 39.2893 4.923Z" fill="#FF5757" stroke="#231F20" stroke-miterlimit="10"/>
<path d="M43.1608 9.78979C32.4626 8.16897 37.1382 24.6987 33.0709 27.5623C29.0037 30.4259 27.8 28.766 20.1218 22.8954C12.4435 17.0248 7.63753 23.4907 8.82382 26.6585C10.1796 30.2738 12.4392 33.1331 21.6252 33.4372C30.8113 33.7414 29.3078 39.1601 24.4888 41.4197C19.6698 43.6792 13.4907 50.6101 15.1507 54.6773C16.8106 58.7446 25.2232 58.4578 28.8559 52.4178C32.4886 46.3777 35.3305 34.9451 38.4939 46.3907C41.6573 57.8364 48.5839 57.9885 48.888 48.5026C49.1922 39.0167 38.1941 33.8935 46.9283 35.5491C55.6624 37.2047 61.8372 39.4599 63.6449 30.4259C65.4525 21.3919 49.9917 25.759 45.9679 29.0745C41.9441 32.39 39.5498 28.3184 45.2727 22.1436C50.9955 15.9689 46.4068 10.2852 43.1608 9.78979Z" fill="#FBB040" stroke="#231F20" stroke-miterlimit="10"/>
<path d="M35.8491 29.2008C41.7675 30.2828 41.8631 40.0251 35.8491 38.7258C29.8351 37.4266 28.8096 34.815 30.4174 31.908C32.0252 29.0009 35.8491 29.2008 35.8491 29.2008Z" fill="#FAFAFA"/>
</svg>
