<svg width="50" height="57" viewBox="0 0 50 57" fill="none" xmlns="http://www.w3.org/2000/svg">
<g clip-path="url(#clip0_2931_3675)">
<path d="M24.6782 14.6222L24.6783 14.6222L24.9848 15.5453L25.5571 14.7588C25.7943 14.4327 26.0367 14.091 26.2863 13.7389C27.6514 11.814 29.2356 9.58013 31.4092 7.90256C33.9425 5.94742 37.2776 4.75464 42.0046 5.86612C44.3565 6.41914 46.0419 7.47137 47.1923 8.88069C48.3457 10.2937 48.9924 12.1039 49.1968 14.2219C49.6074 18.4753 48.2242 23.8764 45.7374 29.4555C44.6031 31.9995 42.3208 34.97 39.4944 38.0148C36.6759 41.0511 33.3484 44.1278 30.1596 46.8836C26.9718 49.6383 23.9289 52.0671 21.6825 53.8073C20.5596 54.6773 19.6361 55.3749 18.9937 55.8547C18.7788 56.0153 18.5953 56.1515 18.4463 56.2616C18.4012 56.1803 18.3508 56.0895 18.2954 55.9895C18.0202 55.4926 17.621 54.7685 17.1259 53.8604C16.1356 52.0441 14.7614 49.4922 13.2261 46.5499C10.1539 40.662 6.44324 33.2235 3.8715 26.9912C1.30823 20.7794 0.201817 14.9276 0.972568 10.2915C1.35678 7.98044 2.20526 5.98249 3.56165 4.38443C4.91651 2.78818 6.79944 1.56564 9.29473 0.836025C14.111 -0.572229 17.9175 2.6868 20.61 6.56478C21.9415 8.48263 22.96 10.4987 23.6465 12.0396C23.9892 12.809 24.2481 13.4573 24.4209 13.9122C24.5073 14.1397 24.5721 14.3186 24.6151 14.44C24.6366 14.5006 24.6526 14.5469 24.6631 14.5777L24.6748 14.612L24.6776 14.6202L24.6782 14.6219L24.6782 14.6222Z" fill="#FF5757" stroke="#231F20" stroke-miterlimit="10"/>
<path d="M24.7542 21.7968L24.7542 21.7968L25.089 23.0113L25.6781 21.8977L25.6781 21.8977L25.6783 21.8974L25.6793 21.8956L25.6836 21.8875L25.7015 21.8541C25.7176 21.8243 25.7417 21.7798 25.7736 21.7218C25.8373 21.6059 25.9319 21.4361 26.0542 21.223C26.299 20.7966 26.6545 20.1973 27.096 19.508C27.9815 18.1257 29.2025 16.398 30.5616 14.9775C31.9407 13.5361 33.3767 12.5024 34.6851 12.3462C35.3158 12.2709 35.9278 12.3978 36.522 12.8064C37.127 13.2226 37.7399 13.9498 38.3165 15.1185L38.7649 14.8973L38.3165 15.1185C40.0059 18.5424 39.8382 22.2827 38.5852 26.0166C37.3306 29.7556 34.9992 33.4485 32.427 36.723C29.8577 39.9938 27.0661 42.8245 24.9139 44.8391C23.8385 45.8458 22.9243 46.6472 22.2796 47.1964C22.0721 47.3731 21.8926 47.5236 21.7446 47.6464C17.594 39.185 14.2176 30.9398 12.6382 24.1993C11.8307 20.7528 11.5008 17.7311 11.7602 15.2894C12.0192 12.851 12.8581 11.0465 14.3365 9.93747C15.0806 9.3793 15.7637 9.15827 16.3885 9.15638C17.0166 9.15449 17.6379 9.37404 18.2548 9.78731C19.5062 10.6257 20.6553 12.2052 21.6388 14.0087C22.6145 15.7978 23.394 17.7446 23.9308 19.2503C24.1987 20.0017 24.4051 20.6403 24.5443 21.0903C24.6139 21.3152 24.6667 21.4929 24.7019 21.6139C24.7195 21.6743 24.7327 21.7206 24.7415 21.7515L24.7512 21.7861L24.7535 21.7945L24.7541 21.7964L24.7542 21.7968Z" fill="#FBB040" stroke="#231F20" stroke-miterlimit="10"/>
</g>
<defs>
<clipPath id="clip0_2931_3675">
<rect width="49.5369" height="57" fill="white" transform="translate(0.231445)"/>
</clipPath>
</defs>
</svg>
