<svg width="395" height="247" viewBox="0 0 395 247" fill="none" xmlns="http://www.w3.org/2000/svg">
<path d="M102.184 73.6878C100.228 73.6616 98.3511 72.9096 96.9181 71.5777C95.416 70.2766 94.4003 68.504 94.0374 66.5502V66.1649V65.7245C94.2025 61.2842 94.3309 51.8164 94.4594 37.578C94.5878 23.3396 94.8264 12.5874 95.23 5.76173L95.4685 1.61498L105.946 3.94524L106.092 6.60576C106.276 9.43143 106.459 14.2938 106.698 21.468C106.698 23.1561 106.808 24.7157 106.845 26.1469C109.291 23.2234 110.961 21.2173 111.854 20.1286L116.184 15.0644C118.129 12.8075 119.945 10.8076 121.56 9.11951C123.175 7.43145 124.955 5.70669 126.789 3.98193L129.964 1.02783L135.835 10.6791L134.734 12.514C132.661 15.9451 125.45 24.8074 112.716 39.578C115.046 42.2385 118.459 46.3669 123.065 52.0366C129.156 59.5595 133.413 64.5319 135.707 66.8254L141.725 72.8437H124.312L123.23 71.963C121.285 70.1282 119.23 68.0548 117.101 65.7429C114.973 63.431 113.193 61.4493 111.835 59.8347C110.863 58.6604 109.597 57.1375 108.074 55.2476L108.698 68.0915L108.514 68.6603C108.174 70.0856 107.365 71.3556 106.217 72.267C105.07 73.1784 103.65 73.6787 102.184 73.6878Z" fill="#231F20"/>
<path d="M187.1 72.8268C179.761 72.3865 170.311 72.1479 158.898 72.1479H145.816L145.944 68.4783C146.22 60.1664 146.385 48.8637 146.403 34.9005C146.403 20.552 146.403 11.6714 146.532 7.70812V3.87329L158.403 5.04759L158.678 7.9283C159.522 16.3502 160.311 32.8088 161.082 58.1848C164.238 58.0747 167.926 58.0196 172.091 58.0196C177.834 58.0196 182.495 58.0196 185.926 57.7628L188.55 57.6343L189.467 60.2214C189.974 61.8347 190.276 63.5053 190.366 65.1939C190.437 66.3694 190.578 67.5396 190.788 68.6984L191.687 73.1938L187.1 72.8268Z" fill="#231F20"/>
<path d="M217.118 74.9002C214.731 74.9324 212.348 74.6861 210.017 74.1663C208.098 73.7583 206.246 73.0852 204.513 72.1663C202.885 71.2382 201.462 69.9899 200.329 68.4966C199.322 67.1847 198.489 65.7476 197.852 64.2214C197.219 62.5959 196.776 60.9027 196.531 59.1756C196.274 57.4692 196.072 55.7995 195.962 54.2215C195.852 52.6435 195.724 50.9922 195.614 48.9738V48.4234C195.338 41.6528 195.192 35.6895 195.192 30.8272C195.192 26.7171 195.375 18.3869 195.705 6.03842L195.815 1.78157L207.375 4.31365V7.08428C207.485 12.2035 207.797 19.6713 208.292 29.3043C208.788 38.9372 209.155 45.8179 209.32 49.983C209.32 51.8178 209.448 53.3041 209.559 54.3683C209.695 55.4873 209.928 56.5923 210.256 57.671C210.41 58.3894 210.731 59.0617 211.192 59.6343C211.714 60.1551 212.338 60.5613 213.026 60.8269C214.2 61.2595 215.446 61.4589 216.696 61.4141C218.213 61.4347 219.73 61.3242 221.228 61.0838C221.988 60.9834 222.715 60.7138 223.357 60.2948C223.979 59.8578 224.551 59.3532 225.063 58.7903C225.382 58.3134 225.601 57.7765 225.705 57.2123C225.977 56.1852 226.191 55.1439 226.347 54.0931C226.494 53.1573 226.641 51.7628 226.806 49.9096C227.191 45.1757 227.412 37.3042 227.467 26.552C227.467 15.5429 227.613 8.6072 227.723 5.41457L227.852 1.74487L239.577 2.73569L239.797 5.74484C240.531 16.2218 240.898 25.2126 240.898 32.4602C240.898 37.6528 240.769 43.7262 240.476 50.4784C240.393 53.0357 240.147 55.5851 239.742 58.1114C239.345 60.3928 238.655 62.6132 237.687 64.7168C236.746 67.014 235.244 69.0389 233.32 70.6067C231.258 72.1136 228.93 73.2156 226.457 73.8544C223.405 74.6183 220.264 74.97 217.118 74.9002Z" fill="#231F20"/>
<path d="M262.145 72.66C256.457 72.66 252.457 71.504 249.944 69.1554L248.824 68.0912L249.265 6.14677L249.412 5.66971C250.164 3.08258 252.659 3.35907e-05 260.109 3.35907e-05C264.137 -0.00525386 268.142 0.613706 271.98 1.83488C275.763 3.00427 279.161 5.17209 281.815 8.11005C284.634 11.1771 286.165 15.211 286.09 19.376C286.078 22.7024 285.259 25.9762 283.705 28.9172C283.306 29.6944 282.852 30.4425 282.347 31.1557C284.474 32.7131 286.234 34.7172 287.503 37.0272C290.101 41.7546 291.405 47.0839 291.283 52.4767C291.289 54.7276 290.812 56.9537 289.885 59.0048C288.957 61.0558 287.601 62.8842 285.907 64.3665C282.691 67.3615 278.83 69.5775 274.622 70.8435C270.578 72.0704 266.372 72.6827 262.145 72.66ZM262.714 58.7885C263.599 59.3913 264.654 59.6936 265.723 59.6509C268.72 59.5405 271.565 58.3019 273.687 56.1831C274.743 55.3958 275.618 54.3901 276.251 53.2344C276.885 52.0788 277.262 50.8002 277.356 49.4859C277.451 48.1835 277.237 46.8772 276.734 45.6724C276.23 44.4676 275.45 43.3981 274.457 42.5501C272.046 40.6836 269.044 39.7459 265.999 39.908C264.733 39.908 263.723 39.908 262.879 39.908C262.843 44.1281 262.788 50.3849 262.678 58.7885H262.714ZM262.512 12.2752C262.512 15.1926 262.641 18.5687 262.659 22.4035C262.659 22.4035 262.659 26.4402 262.659 26.9172H264.366C265.429 27.0115 266.499 26.8768 267.506 26.5223C268.512 26.1678 269.431 25.6017 270.2 24.8622C271.539 23.4548 272.264 21.5744 272.219 19.6329C272.26 17.6272 271.516 15.6847 270.145 14.2201C269.42 13.473 268.54 12.8937 267.567 12.5229C266.594 12.152 265.551 11.9986 264.512 12.0733C263.841 12.085 263.172 12.1525 262.512 12.2752Z" fill="#231F20"/>
<path d="M2.79 230.604L10.1294 114.33C10.3256 111.145 11.7296 108.154 14.0549 105.969C16.3803 103.783 19.4518 102.567 22.643 102.569H97.5415C100.748 102.564 103.834 103.788 106.165 105.989C108.496 108.191 109.895 111.202 110.074 114.403L116.587 230.678C116.682 232.38 116.429 234.085 115.843 235.686C115.257 237.288 114.351 238.753 113.18 239.993C112.009 241.233 110.597 242.221 109.032 242.897C107.466 243.573 105.779 243.923 104.074 243.925H94.2021C92.5548 243.925 90.9237 243.6 89.402 242.97C87.8804 242.339 86.4981 241.414 85.3341 240.248C84.1702 239.083 83.2475 237.699 82.6187 236.176C81.99 234.654 81.6677 233.022 81.6701 231.375V227.834C81.6701 226.186 81.3453 224.555 80.7144 223.034C80.0834 221.512 79.1587 220.13 77.9931 218.966C76.8274 217.802 75.4437 216.879 73.9211 216.25C72.3986 215.622 70.767 215.299 69.1197 215.302H52.8079C49.4842 215.302 46.2967 216.622 43.9465 218.972C41.5963 221.322 40.2759 224.51 40.2759 227.834V231.375C40.2759 233.023 39.9513 234.655 39.3206 236.178C38.6899 237.7 37.7654 239.084 36.6 240.249C35.4346 241.415 34.0511 242.339 32.5284 242.97C31.0057 243.601 29.3737 243.925 27.7256 243.925H15.3037C13.5909 243.926 11.8962 243.576 10.3241 242.896C8.75198 242.217 7.33588 241.222 6.16321 239.974C4.99055 238.725 4.08621 237.25 3.50604 235.638C2.92586 234.027 2.68217 232.314 2.79 230.604Z" fill="#77A4D4" stroke="#231F20" stroke-width="5.50454" stroke-miterlimit="10"/>
<path d="M256.862 230.604L264.109 114.33C264.306 111.145 265.71 108.154 268.035 105.969C270.36 103.783 273.432 102.567 276.623 102.569H351.613C354.818 102.568 357.902 103.794 360.232 105.994C362.563 108.195 363.963 111.204 364.145 114.403L370.659 230.678C370.754 232.38 370.5 234.085 369.915 235.686C369.329 237.288 368.423 238.753 367.252 239.993C366.081 241.233 364.669 242.221 363.103 242.897C361.538 243.573 359.851 243.923 358.145 243.925H348.274C346.627 243.925 344.995 243.6 343.474 242.97C341.952 242.339 340.57 241.414 339.406 240.248C338.242 239.083 337.319 237.699 336.691 236.176C336.062 234.654 335.739 233.022 335.742 231.375V227.834C335.742 226.186 335.417 224.555 334.786 223.034C334.155 221.512 333.23 220.13 332.065 218.966C330.899 217.802 329.515 216.879 327.993 216.25C326.47 215.622 324.839 215.299 323.192 215.302H306.88C303.556 215.302 300.368 216.622 298.018 218.972C295.668 221.322 294.348 224.51 294.348 227.834V231.375C294.348 234.703 293.025 237.896 290.672 240.249C288.318 242.603 285.126 243.925 281.797 243.925H269.375C267.663 243.926 265.968 243.576 264.396 242.896C262.824 242.217 261.408 241.222 260.235 239.974C259.062 238.725 258.158 237.25 257.578 235.638C256.998 234.027 256.754 232.314 256.862 230.604Z" fill="#77A4D4" stroke="#231F20" stroke-width="5.50454" stroke-miterlimit="10"/>
<path d="M141.119 114.569V231.999C141.119 235.182 142.383 238.234 144.634 240.485C146.884 242.735 149.936 243.999 153.119 243.999H192.128C192.86 244.006 193.592 243.938 194.311 243.798C201.651 242.421 238.659 232.477 238.659 173.321C238.659 107.707 215.76 102.643 189.889 102.643H153.192C151.616 102.633 150.054 102.934 148.594 103.528C147.135 104.122 145.807 104.998 144.685 106.106C143.564 107.213 142.672 108.53 142.06 109.983C141.448 111.435 141.129 112.993 141.119 114.569Z" fill="#77A4D4" stroke="#231F20" stroke-width="5.50454" stroke-miterlimit="10"/>
<path d="M12.9187 220.954L20.148 104.679C20.353 101.494 21.7622 98.5062 24.0896 96.3219C26.417 94.1377 29.4882 92.9207 32.68 92.918H107.67C110.878 92.9177 113.965 94.1459 116.295 96.3503C118.626 98.5548 120.024 101.568 120.202 104.771L126.716 221.045C126.811 222.747 126.557 224.451 125.971 226.051C125.385 227.652 124.479 229.116 123.308 230.354C122.136 231.593 120.725 232.579 119.159 233.253C117.593 233.927 115.907 234.275 114.202 234.275H104.331C102.684 234.277 101.052 233.955 99.5294 233.326C98.0068 232.697 96.6231 231.774 95.4575 230.611C94.2918 229.447 93.3671 228.064 92.7362 226.543C92.1052 225.021 91.7805 223.39 91.7805 221.743V218.201C91.7829 216.554 91.4605 214.922 90.8318 213.4C90.2031 211.877 89.2804 210.494 88.1164 209.328C86.9525 208.162 85.5701 207.238 84.0485 206.607C82.5268 205.976 80.8957 205.651 79.2485 205.651H62.9367C59.6081 205.651 56.4159 206.973 54.0622 209.327C51.7086 211.681 50.3863 214.873 50.3863 218.201V221.688C50.3863 225.011 49.066 228.199 46.7158 230.549C44.3656 232.899 41.178 234.22 37.8543 234.22H25.4324C23.7246 234.22 22.0347 233.871 20.4665 233.195C18.8983 232.519 17.4849 231.529 16.3131 230.287C15.1412 229.044 14.2356 227.576 13.6519 225.971C13.0682 224.366 12.8187 222.658 12.9187 220.954Z" fill="#FBBC24"/>
<path d="M12.9187 220.954L20.148 104.679C20.353 101.494 21.7622 98.5062 24.0896 96.3219C26.417 94.1377 29.4882 92.9207 32.68 92.918H107.67C110.878 92.9177 113.965 94.1459 116.295 96.3503C118.626 98.5548 120.024 101.568 120.202 104.771L126.716 221.045C126.811 222.747 126.557 224.451 125.971 226.051C125.385 227.652 124.479 229.116 123.308 230.354C122.136 231.593 120.725 232.579 119.159 233.253C117.593 233.927 115.907 234.275 114.202 234.275H104.331C102.684 234.277 101.052 233.955 99.5294 233.326C98.0068 232.697 96.6231 231.774 95.4575 230.611C94.2918 229.447 93.3671 228.064 92.7362 226.543C92.1052 225.021 91.7805 223.39 91.7805 221.743V218.201C91.7829 216.554 91.4605 214.922 90.8318 213.4C90.2031 211.877 89.2804 210.494 88.1164 209.328C86.9525 208.162 85.5701 207.238 84.0485 206.607C82.5268 205.976 80.8957 205.651 79.2485 205.651H62.9367C59.6081 205.651 56.4159 206.973 54.0622 209.327C51.7086 211.681 50.3863 214.873 50.3863 218.201V221.688C50.3863 225.011 49.066 228.199 46.7158 230.549C44.3656 232.899 41.178 234.22 37.8543 234.22H25.4324C23.7246 234.22 22.0347 233.871 20.4665 233.195C18.8983 232.519 17.4849 231.529 16.3131 230.287C15.1412 229.044 14.2356 227.576 13.6519 225.971C13.0682 224.366 12.8187 222.658 12.9187 220.954Z" stroke="#231F20" stroke-width="5.50454" stroke-miterlimit="10"/>
<path d="M266.99 220.954L274.219 104.679C274.424 101.494 275.834 98.5062 278.161 96.3219C280.488 94.1377 283.56 92.9207 286.751 92.918H361.76C364.966 92.918 368.05 94.1468 370.378 96.3516C372.706 98.5565 374.1 101.57 374.274 104.771L380.806 221.045C380.898 222.748 380.642 224.452 380.054 226.053C379.466 227.653 378.558 229.117 377.385 230.355C376.212 231.593 374.799 232.579 373.233 233.253C371.666 233.927 369.979 234.275 368.274 234.275H358.421C356.773 234.277 355.142 233.955 353.619 233.326C352.097 232.697 350.713 231.774 349.547 230.611C348.382 229.447 347.457 228.064 346.826 226.543C346.195 225.021 345.87 223.39 345.87 221.743V218.201C345.873 216.554 345.55 214.922 344.922 213.4C344.293 211.877 343.37 210.494 342.206 209.328C341.042 208.162 339.66 207.238 338.138 206.607C336.617 205.976 334.986 205.651 333.338 205.651H317.026C313.698 205.651 310.506 206.973 308.152 209.327C305.798 211.681 304.476 214.873 304.476 218.201V221.688C304.476 225.011 303.156 228.199 300.806 230.549C298.455 232.899 295.268 234.22 291.944 234.22H279.522C277.812 234.225 276.119 233.88 274.547 233.206C272.976 232.532 271.559 231.542 270.385 230.299C269.21 229.056 268.303 227.585 267.719 225.978C267.136 224.371 266.887 222.661 266.99 220.954Z" fill="#FBBC24"/>
<path d="M266.99 220.954L274.219 104.679C274.424 101.494 275.834 98.5062 278.161 96.3219C280.488 94.1377 283.56 92.9207 286.751 92.918H361.76C364.966 92.918 368.05 94.1468 370.378 96.3516C372.706 98.5565 374.1 101.57 374.274 104.771L380.806 221.045C380.898 222.748 380.642 224.452 380.054 226.053C379.466 227.653 378.558 229.117 377.385 230.355C376.212 231.593 374.799 232.579 373.233 233.253C371.666 233.927 369.979 234.275 368.274 234.275H358.421C356.773 234.277 355.142 233.955 353.619 233.326C352.097 232.697 350.713 231.774 349.547 230.611C348.382 229.447 347.457 228.064 346.826 226.543C346.195 225.021 345.87 223.39 345.87 221.743V218.201C345.873 216.554 345.55 214.922 344.922 213.4C344.293 211.877 343.37 210.494 342.206 209.328C341.042 208.162 339.66 207.238 338.138 206.607C336.617 205.976 334.986 205.651 333.338 205.651H317.026C313.698 205.651 310.506 206.973 308.152 209.327C305.798 211.681 304.476 214.873 304.476 218.201V221.688C304.476 225.011 303.156 228.199 300.806 230.549C298.455 232.899 295.268 234.22 291.944 234.22H279.522C277.812 234.225 276.119 233.88 274.547 233.206C272.976 232.532 271.559 231.542 270.385 230.299C269.21 229.056 268.303 227.585 267.719 225.978C267.136 224.371 266.887 222.661 266.99 220.954Z" stroke="#231F20" stroke-width="5.50454" stroke-miterlimit="10"/>
<path d="M151.229 104.919V222.349C151.229 225.532 152.493 228.584 154.743 230.834C156.994 233.085 160.046 234.349 163.229 234.349H202.256C202.989 234.355 203.72 234.287 204.439 234.147C211.779 232.771 248.769 222.845 248.769 163.671C248.769 98.0566 225.87 92.9924 199.999 92.9924H163.302C161.726 92.9827 160.164 93.2836 158.704 93.8777C157.245 94.4718 155.916 95.3477 154.795 96.4551C153.674 97.5626 152.782 98.8801 152.17 100.332C151.558 101.785 151.238 103.343 151.229 104.919Z" fill="#FBBC24"/>
<path d="M151.229 104.919V222.349C151.229 225.532 152.493 228.584 154.743 230.834C156.994 233.085 160.046 234.349 163.229 234.349H202.256C202.989 234.355 203.72 234.287 204.439 234.147C211.779 232.771 248.769 222.845 248.769 163.671C248.769 98.0566 225.87 92.9924 199.999 92.9924H163.302C161.726 92.9827 160.164 93.2836 158.704 93.8777C157.245 94.4718 155.916 95.3477 154.795 96.4551C153.674 97.5626 152.782 98.8801 152.17 100.332C151.558 101.785 151.238 103.343 151.229 104.919Z" stroke="#231F20" stroke-width="5.50454" stroke-miterlimit="10"/>
<path d="M278.072 209.246L285.319 92.9718C285.515 89.7866 286.919 86.7963 289.245 84.6108C291.57 82.4252 294.642 81.2091 297.833 81.2105H372.768C375.974 81.2104 379.058 82.4393 381.386 84.6441C383.714 86.849 385.108 89.8621 385.282 93.0636L391.795 209.338C391.89 211.04 391.637 212.743 391.051 214.344C390.465 215.944 389.558 217.409 388.387 218.647C387.216 219.885 385.804 220.872 384.238 221.546C382.673 222.22 380.986 222.567 379.282 222.567H369.41C366.086 222.567 362.899 221.247 360.549 218.897C358.198 216.546 356.878 213.359 356.878 210.035V206.494C356.878 203.165 355.556 199.973 353.202 197.619C350.849 195.266 347.656 193.943 344.328 193.943H328.016C326.369 193.943 324.738 194.268 323.216 194.899C321.694 195.53 320.312 196.455 319.148 197.62C317.984 198.786 317.061 200.17 316.433 201.692C315.804 203.215 315.482 204.847 315.484 206.494V210.035C315.484 211.682 315.159 213.313 314.528 214.835C313.897 216.357 312.973 217.739 311.807 218.903C310.641 220.067 309.258 220.99 307.735 221.618C306.212 222.247 304.581 222.569 302.934 222.567H290.512C288.805 222.558 287.118 222.2 285.555 221.516C283.992 220.832 282.584 219.836 281.42 218.589C280.255 217.341 279.357 215.869 278.781 214.263C278.206 212.656 277.964 210.949 278.072 209.246Z" fill="#FF5757" stroke="#231F20" stroke-width="5.50454" stroke-miterlimit="10"/>
<path d="M162.33 93.2466V210.677C162.33 213.859 163.594 216.912 165.845 219.162C168.095 221.412 171.147 222.677 174.33 222.677H213.339C214.072 222.683 214.803 222.616 215.522 222.475C222.862 221.099 259.871 211.172 259.871 151.998C259.871 86.3842 236.972 81.3201 211.1 81.3201H174.403C172.828 81.3104 171.265 81.6112 169.806 82.2053C168.346 82.7995 167.018 83.6753 165.897 84.7828C164.775 85.8903 163.883 87.2077 163.272 88.6599C162.66 90.1122 162.34 91.6707 162.33 93.2466Z" fill="#FF5757" stroke="#231F20" stroke-width="5.50454" stroke-miterlimit="10"/>
<path d="M24.0012 209.246L31.3406 92.9718C31.5368 89.7866 32.9408 86.7963 35.2662 84.6108C37.5915 82.4252 40.663 81.2091 43.8543 81.2105H118.863C122.069 81.2104 125.153 82.4393 127.481 84.6441C129.809 86.849 131.203 89.8621 131.376 93.0636L137.89 209.338C137.985 211.04 137.732 212.743 137.146 214.344C136.56 215.944 135.653 217.409 134.482 218.647C133.311 219.885 131.899 220.871 130.333 221.546C128.768 222.22 127.081 222.567 125.377 222.567H115.505C112.181 222.567 108.994 221.247 106.644 218.897C104.293 216.546 102.973 213.359 102.973 210.035V206.494C102.973 203.165 101.651 199.973 99.2971 197.619C96.9435 195.266 93.7512 193.943 90.4227 193.943H74.1109C72.4636 193.943 70.8325 194.268 69.3109 194.899C67.7892 195.53 66.4069 196.455 65.2429 197.62C64.079 198.786 63.1562 200.17 62.5275 201.692C61.8988 203.215 61.5765 204.847 61.5789 206.494V210.035C61.5789 211.682 61.2541 213.313 60.6232 214.835C59.9922 216.357 59.0675 217.739 57.9019 218.903C56.7362 220.067 55.3525 220.99 53.83 221.618C52.3074 222.247 50.6758 222.569 49.0285 222.567H36.6066C34.8862 222.581 33.1814 222.24 31.5984 221.566C30.0155 220.891 28.5883 219.899 27.4057 218.649C26.2232 217.399 25.3106 215.92 24.7249 214.302C24.1392 212.684 23.8928 210.963 24.0012 209.246Z" fill="#FF5757" stroke="#231F20" stroke-width="5.50454" stroke-miterlimit="10"/>
<path d="M88.6972 175.082L76.4955 147.798L64.9727 164.037V107.909L106.495 145.468L86.6972 143.229L99.4311 170.275L88.6972 175.082Z" fill="white" stroke="#231F20" stroke-width="5.50454" stroke-miterlimit="10"/>
</svg>
